<svg width="1024" height="1024" viewBox="0 0 1024 1024" fill="none" xmlns="http://www.w3.org/2000/svg">
<g clip-path="url(#clip0_324_330)">
<rect width="1024" height="1024" fill="#C6FE1E"/>
<path d="M512 0C229.239 0 0 229.239 0 512C0 794.761 229.239 1024 512 1024C794.761 1024 1024 794.761 1024 512C1024 229.239 794.761 0 512 0Z" fill="#C6FE1E"/>
<mask id="mask0_324_330" style="mask-type:luminance" maskUnits="userSpaceOnUse" x="153" y="230" width="769" height="641">
<path d="M921.6 230.401H153.6V870.401H921.6V230.401Z" fill="white"/>
</mask>
<g mask="url(#mask0_324_330)">
<path d="M450.902 378.059H450.561C429.398 371.983 407.007 384.135 399.839 404.205C391.92 425.778 404.481 450.49 426.668 457.317C481.008 472.745 504.355 394.853 450.902 378.059Z" fill="#0D0D0D"/>
<path d="M914.024 488.172C844.051 334.913 620.819 398.333 600.202 358.192C539.786 263.37 427.01 210.122 305.086 237.565C286.312 230.056 221.664 228.008 179.884 254.29L205.075 265.418C206.986 266.237 206.44 266.032 209.239 267.056C220.64 271.357 218.66 270.128 210.468 274.634C191.695 285.625 168.279 298.39 153.67 317.573C154.284 318.461 185.824 326.039 185.824 326.039C186.37 326.175 192.241 326.789 190.944 329.384C87.7927 492.268 261.736 738.096 346.182 870.397H590.645C552.894 802.813 509.749 710.585 524.495 647.984C527.157 636.652 530.57 622.248 544.497 620.336C578.152 614.943 623.208 615.421 655.294 611.803C655.294 611.803 655.453 611.803 655.771 611.803C662.598 611.461 829.715 590.23 869.719 694.405C873.133 703.963 880.983 697.75 884.123 691.47C913.956 632.146 933.207 538.757 914.161 488.24L914.024 488.172ZM644.234 437.859C632.493 458.817 624.505 486.056 622.457 509.812C621.365 524.899 622.935 539.781 624.437 554.868C625.256 563.197 625.325 573.71 618.634 579.171C612.832 584.086 603.206 584.564 593.512 585.247C545.93 585.042 429.877 585.247 385.162 554.8L384.889 554.595C319.831 514.932 285.015 425.367 323.654 355.803C336.147 332.183 359.153 316.822 385.367 311.02C419.091 303.306 456.228 309.04 486.334 324.81C498.622 331.022 513.299 339.214 524.495 348.635C546.681 368.023 565.659 388.161 594.741 394.373C608.121 398.196 622.048 397.65 635.428 400.381C660.482 406.388 654.201 420.656 644.166 437.723L644.234 437.859Z" fill="#0D0D0D"/>
</g>
</g>
<defs>
<clipPath id="clip0_324_330">
<rect width="1024" height="1024" fill="white"/>
</clipPath>
</defs>
</svg>
